<?xml version="1.0" standalone="no"?>
<!DOCTYPE svg PUBLIC "-//W3C//DTD SVG 20010904//EN"
 "http://www.w3.org/TR/2001/REC-SVG-20010904/DTD/svg10.dtd">
<svg version="1.0" xmlns="http://www.w3.org/2000/svg"
 width="260.000000pt" height="260.000000pt" viewBox="0 0 260.000000 260.000000"
 preserveAspectRatio="xMidYMid meet">
<metadata>
Created by potrace 1.11, written by Peter Selinger 2001-2013
</metadata>
<g transform="translate(0.000000,260.000000) scale(0.100000,-0.100000)"
fill="#000000" stroke="none">
<path d="M2043 2151 c-38 -24 -44 -32 -94 -131 -23 -47 -46 -86 -51 -88 -4 -2
-8 -8 -8 -12 0 -5 -20 -50 -44 -99 -24 -49 -53 -118 -65 -153 -23 -69 -65
-247 -75 -318 -4 -25 -18 -63 -30 -85 -13 -22 -38 -67 -56 -100 -105 -194
-133 -237 -203 -302 -54 -50 -87 -61 -119 -39 -29 21 -44 81 -42 171 1 67 12
174 19 186 2 3 6 25 9 50 10 75 42 205 57 224 19 25 187 376 249 520 18 42 27
91 19 111 -9 27 -35 37 -57 23 -56 -36 -224 -307 -297 -480 -31 -74 -63 -147
-70 -164 -40 -90 -74 -196 -91 -280 -7 -34 -113 -183 -190 -264 -78 -83 -151
-137 -254 -189 -74 -37 -94 -42 -170 -43 -75 -1 -99 7 -165 52 -44 29 -80 91
-91 155 -9 51 -10 187 -1 244 11 70 63 224 116 345 10 22 30 72 46 110 42 107
47 115 97 171 43 47 46 53 32 65 -54 45 -406 -485 -459 -691 -35 -133 -37
-311 -4 -372 5 -10 7 -18 5 -18 -11 0 57 -106 86 -134 89 -88 207 -134 343
-134 86 0 119 6 182 34 17 8 34 14 39 14 10 0 114 79 139 106 53 58 73 83 103
132 17 29 32 54 32 57 0 7 60 105 81 132 16 22 16 21 18 -30 2 -72 25 -152 55
-191 14 -18 49 -46 78 -61 82 -43 153 -39 203 10 30 29 140 208 210 340 70
134 70 133 71 56 0 -81 11 -167 24 -190 5 -10 10 -28 12 -42 6 -38 56 -133 95
-178 38 -46 147 -124 157 -114 3 4 6 1 6 -5 0 -7 3 -11 8 -10 4 0 16 -2 27 -6
82 -31 120 -39 195 -38 150 2 232 44 325 166 35 46 25 61 -45 62 -84 2 -271
13 -308 19 -45 6 -103 26 -123 42 -8 7 -20 13 -25 13 -18 1 -64 77 -81 135
-33 119 -37 313 -8 495 36 233 84 407 149 539 52 107 54 158 7 186 -25 15 -37
14 -68 -4z"/>
</g>
</svg>
